<svg role="img" aria-hidden="true" viewBox="0 0 24 24" width="24px" height="24px">
    <defs>
        <path id="icon" d="M13.5 1.515a3 3 0 0 0-3 0L3 5.845a2 2 0 0 0-1 1.732V21a1 1 0 0 0 1 1h6a1 1 0 0 0 1-1v-6h4v6a1 1 0 0 0 1 1h6a1 1 0 0 0 1-1V7.577a2 2 0 0 0-1-1.732l-7.5-4.33z"></path>
        <clipPath id="clip">
            <use xlink:href="#icon" />
        </clipPath>
    </defs>
    <g>
        <use xlink:href="#icon" clip-path="url(#clip)" />
    </g>
<!--    <defs>-->


<!--    </defs>-->
<!--    <g>-->
<!--        <use xlink:href="#ld" clip-path="url(#clip)" />-->
<!--    </g>-->
</svg>
